<?xml version="1.0" standalone="no"?>
<!DOCTYPE svg PUBLIC "-//W3C//DTD SVG 20010904//EN"
 "http://www.w3.org/TR/2001/REC-SVG-20010904/DTD/svg10.dtd">
<svg version="1.0" xmlns="http://www.w3.org/2000/svg"
 width="972.000000pt" height="183.000000pt" viewBox="0 0 972.000000 183.000000"
 preserveAspectRatio="xMidYMid meet">

<g transform="translate(0.000000,183.000000) scale(0.100000,-0.100000)"
fill="#000000" stroke="none">
<path d="M2780 1380 c-133 -28 -265 -132 -295 -233 -19 -63 -19 -91 -1 -151
37 -123 137 -178 429 -236 81 -16 168 -38 193 -49 55 -25 73 -61 51 -107 -23
-48 -76 -68 -189 -72 -143 -6 -207 20 -273 110 l-20 26 -129 -23 c-70 -13
-131 -27 -134 -30 -9 -8 34 -87 67 -124 38 -43 134 -98 216 -124 62 -19 91
-22 250 -22 171 0 184 2 259 28 148 52 237 137 265 252 30 127 -56 259 -204
314 -48 18 -144 40 -334 75 -97 18 -141 40 -153 78 -12 36 8 79 47 97 46 22
163 26 226 7 42 -11 66 -27 98 -61 34 -37 47 -44 64 -39 12 4 62 17 111 30 49
12 93 27 98 32 24 24 -70 130 -152 172 -85 43 -130 52 -290 56 -85 1 -175 -1
-200 -6z"/>
<path d="M3685 1368 c-3 -7 -4 -238 -3 -513 l3 -500 145 0 145 0 3 199 c1 127
6 204 13 213 16 19 382 19 398 0 7 -9 12 -86 13 -213 l3 -199 142 -3 c141 -3
143 -2 148 20 3 13 4 244 3 513 l-3 490 -145 0 -145 0 -5 -195 -5 -195 -205 0
-205 0 -5 195 -5 195 -143 3 c-108 2 -144 0 -147 -10z"/>
<path d="M4965 1368 c-3 -7 -4 -238 -3 -513 l3 -500 150 0 150 0 0 510 0 510
-148 3 c-112 2 -149 0 -152 -10z"/>
<path d="M5497 1373 c-4 -3 -7 -46 -7 -95 l0 -88 294 0 c179 0 297 -4 301 -10
3 -5 -141 -155 -320 -332 l-325 -323 0 -76 c0 -52 4 -80 14 -88 9 -8 156 -10
527 -9 l514 3 3 91 c3 88 2 92 -20 98 -13 3 -164 6 -335 6 -172 0 -313 3 -313
8 0 4 147 151 326 326 l325 319 -3 86 -3 86 -486 3 c-267 1 -489 -1 -492 -5z"/>
<path d="M6685 1368 c-3 -7 -4 -238 -3 -513 l3 -500 460 0 460 0 3 98 3 97
-305 0 c-292 0 -306 1 -316 19 -15 30 -13 186 3 200 9 7 96 12 248 13 l234 3
0 90 0 90 -234 3 c-138 1 -239 7 -247 12 -19 17 -18 174 1 194 14 14 55 16
316 16 l300 0 -3 93 -3 92 -458 3 c-361 2 -459 0 -462 -10z"/>
<path d="M7807 1374 c-4 -4 -7 -233 -7 -510 0 -448 2 -503 16 -508 9 -3 60 -6
115 -6 94 0 99 1 104 23 4 12 5 163 3 335 -2 228 0 312 8 312 7 0 50 -53 98
-117 215 -296 399 -539 412 -546 7 -4 64 -6 126 -5 l113 3 3 513 2 513 -107
-3 -108 -3 -3 -287 c-2 -221 -5 -288 -15 -288 -7 0 -47 48 -89 108 -42 59
-137 188 -211 287 l-133 180 -160 3 c-88 1 -163 -1 -167 -4z"/>
</g>
</svg>
